<svg width="44" height="32" viewBox="0 0 44 32" fill="none" xmlns="http://www.w3.org/2000/svg">
<path d="M4.75676 8.07207L0.0360441 0.296919H9.4584L4.75676 8.07207Z" fill="#1E22AA"/>
<path d="M17.0064 9.46353L13.3569 15.7656H20.6559L17.0064 9.46353Z" fill="#1E22AA"/>
<path d="M21.3253 17.026L21.3253 31.96H30.0317L21.3253 17.026Z" fill="#1E22AA"/>
<path d="M43.8999 24.1302C43.8999 28.4334 40.4009 31.9219 36.0847 31.9219C31.7685 31.9219 28.2695 28.4334 28.2695 24.1302C28.2695 19.827 31.7685 16.3386 36.0847 16.3386C40.4009 16.3386 43.8999 19.827 43.8999 24.1302Z" fill="#1E22AA"/>
<path d="M4.82385 16.1857H12.6391V31.9218H4.82385V16.1857Z" fill="#1E22AA"/>
<path fill-rule="evenodd" clip-rule="evenodd" d="M13.0988 31.9218C17.4996 31.9218 21.0672 28.3992 21.0672 24.0538C21.0672 19.7084 17.4996 16.1857 13.0988 16.1857V31.9218Z" fill="#1E22AA"/>
<path fill-rule="evenodd" clip-rule="evenodd" d="M25.8889 23.8159C25.8889 23.8159 25.8889 23.8159 25.8889 23.8159C28.0226 22.5503 29.4954 21.0747 27.963 18.1719C27.1202 16.5754 25.6644 16.033 21.6036 16.4149C21.5712 16.4341 21.5392 16.4538 21.5076 16.4739L25.8889 23.8159Z" fill="#1E22AA"/>
<path d="M4.75671 8.66673H12.6846V15.8019H4.75671V8.66673Z" fill="#1E22AA"/>
<path d="M17.1596 8.9288L22.2165 0.449631L31.0278 15.8802H21.2205L17.1596 8.9288Z" fill="#1E22AA"/>
<path d="M9.88076 0.29689H17.6194L12.6391 8.69967H4.82385L9.88076 0.29689Z" fill="#1E22AA"/>
</svg>
